<svg width="64" height="64" viewBox="0 0 64 64" fill="none" xmlns="http://www.w3.org/2000/svg">
  <path d="M52 6C46 16 40 22 34 27C26 33 18 38 14 50C12 55 11 59 11 59"
        stroke="#7C8A54" stroke-width="2.4" stroke-linecap="round" fill="none"/>
  <g fill="#8A9A5B">
    <path d="M44 12C49 10 53 12 54 16C49 18 45 16 44 12Z"/>
    <path d="M33 24C38 22 42 24 43 28C38 30 34 28 33 24Z"/>
    <path d="M22 36C27 34 31 36 32 40C27 42 23 40 22 36Z"/>
    <path d="M14 48C19 46 23 48 24 52C19 54 15 52 14 48Z"/>
  </g>
  <g fill="#E86315">
    <circle cx="50" cy="9" r="2.2"/>
    <circle cx="12" cy="56" r="2.2"/>
  </g>
</svg>
